<?xml version="1.0" encoding="UTF-8"?>
<svg fill="none" viewBox="0 0 21 20" xmlns="http://www.w3.org/2000/svg">
<path d="m8.1515 0.12891c-0.69901 0-1.3481 0.2479-1.7974 0.69411-0.44936 0.44621-0.69901 1.0908-0.69901 1.7849s0.44936 1.1899 0.69901 1.7849c0.07489 0.14874 0.07489 0.39664 0.07489 0.69411h-5.7668v14.874h5.7668c0-0.2975-0.02496-0.5454-0.07489-0.6941-0.24965-0.595-0.69901-1.0908-0.69901-1.7849s0.24965-1.3386 0.69901-1.7848c0.44936-0.4463 1.0984-0.6942 1.7974-0.6942s1.3481 0.2479 1.7974 0.6942c0.44936 0.4462 0.69896 1.0907 0.69896 1.7848s-0.4493 1.1899-0.69896 1.7849c-0.07489 0.1487-0.07489 0.3966-0.07489 0.6941h5.7668v-5.7264c0.2995 0 0.5492 0.0248 0.699 0.0743 0.5991 0.2479 1.0984 0.6941 1.7974 0.6941s1.3481-0.2479 1.7975-0.6941c0.4493-0.4462 0.699-1.0907 0.699-1.7848s-0.2497-1.3387-0.699-1.7849c-0.4494-0.4462-1.0985-0.6941-1.7975-0.6941s-1.1983 0.4462-1.7974 0.6941c-0.1498 0.0744-0.3995 0.0744-0.699 0.0744v-5.7264h-5.7668c0-0.29747 0.02496-0.54537 0.07489-0.69411 0.24966-0.59495 0.69896-1.0908 0.69896-1.7849s-0.2496-1.3386-0.69896-1.7849c-0.44936-0.44622-1.0984-0.69411-1.7974-0.69411z" fill="#92929D"/>
</svg>
